<svg xmlns="http://www.w3.org/2000/svg" viewBox="0 0 364 304">
<path d="M 331 83.962 C 345.667 75.496 364 86.078 364 103.011 C 364 110.869 359.807 118.131 353 122.059 C 340.818 129.091 326.108 122.983 321.472 111.009 L 266 111.009 L 266 163.997 L 317.8 163.997 L 318 178.994 L 266 178.994 L 266 252.113 C 274.425 254.971 281 262.834 281 272.974 C 281 280.832 276.807 288.094 270 292.022 C 255.333 300.487 237 289.907 237 272.974 C 237 265.116 241.193 257.854 248 253.925 C 248.985 253.356 249.986 252.874 250.998 252.473 L 250.796 208.972 L 198 208.987 L 198 268.975 L 184 268.975 L 184 208.987 L 154 208.987 L 154 261.977 L 140 261.977 L 140 208.987 L 110 208.987 L 110 235.982 L 49.857 235.982 C 48.175 240.991 44.714 245.311 40 248.032 C 25.333 256.498 7 245.916 7 228.983 C 7 221.125 11.193 213.863 18 209.934 C 30.182 202.904 44.893 209.011 49.528 220.985 L 94 220.985 L 94 168.997 L 35 168.997 L 35 153 L 94 153 L 94 129.005 L 42 129.005 L 41 113.009 L 94 113.009 L 94 42.889 C 85.575 40.032 79 32.168 79 22.028 C 79 14.17 83.193 6.909 90 2.98 C 104.667 -5.486 123 5.096 123 22.028 C 123 29.886 118.807 37.148 112 41.077 C 111.014 41.646 110.012 42.129 109 42.53 L 109 96.012 L 162 96.012 L 162 36.025 L 177 36.025 L 177 96.012 L 203 96.012 L 203 29.026 L 219 29.026 L 219 96.012 L 252 96.012 L 252 59.02 L 266 59.02 L 266 96.012 L 321.143 96.012 C 322.825 91.003 326.286 86.683 331 83.962 Z M 337.5 110.803 C 343.5 114.266 351 109.938 351 103.011 C 351 99.796 349.285 96.825 346.5 95.218 C 340.5 91.755 333 96.084 333 103.011 C 333 106.225 334.715 109.196 337.5 110.803 Z M 96.5 29.82 C 102.5 33.283 110 28.954 110 22.028 C 110 18.814 108.285 15.842 105.5 14.236 C 99.5 10.772 92 15.102 92 22.028 C 92 25.243 93.715 28.214 96.5 29.82 Z M 24.5 236.776 C 30.5 240.239 38 235.91 38 228.983 C 38 225.769 36.285 222.798 33.5 221.192 C 27.5 217.728 20 222.056 20 228.983 C 20 232.198 21.715 235.169 24.5 236.776 Z M 254.5 280.766 C 260.5 284.229 268 279.901 268 272.974 C 268 269.759 266.285 266.788 263.5 265.181 C 257.5 261.718 250 266.047 250 272.974 C 250 276.188 251.715 279.159 254.5 280.766 Z" style="fill: rgb(160, 160, 160); pointer-events: none;"></path>
<path style="fill: rgb(218, 218, 218); pointer-events: none;" d="M 142 44.024 L 142 90.013 L 129 90.013 L 129 44.024 L 142 44.024 Z M 231.98 214.986 L 231.98 260.976 L 218.98 260.976 L 218.98 214.986 L 231.98 214.986 Z M 41 187.992 L 87 187.992 L 87 200.989 L 41 200.989 L 41 187.992 Z M 273 131.005 L 319 131.005 L 319 144.002 L 273 144.002 L 273 131.005 Z M 11 101.958 C 25.667 93.493 44 104.074 44 121.007 C 44 128.865 39.807 136.127 33 140.056 C 18.333 148.52 0 137.939 0 121.007 C 0 113.148 4.193 105.887 11 101.958 Z M 17.5 128.799 C 23.5 132.262 31 127.933 31 121.007 C 31 117.792 29.285 114.821 26.5 113.214 C 20.5 109.751 13 114.08 13 121.007 C 13 124.221 14.715 127.192 17.5 128.799 Z M 136 262.923 C 150.667 254.458 169 265.04 169 281.971 C 169 289.83 164.807 297.091 158 301.021 C 143.333 309.486 125 298.904 125 281.971 C 125 274.114 129.193 266.852 136 262.923 Z M 142.5 289.764 C 148.5 293.227 156 288.898 156 281.971 C 156 278.758 154.285 275.786 151.5 274.18 C 145.5 270.716 138 275.046 138 281.971 C 138 285.186 139.715 288.158 142.5 289.764 Z M 325 152.947 C 339.667 144.481 358 155.063 358 171.996 C 358 179.854 353.807 187.115 347 191.044 C 332.333 199.51 314 188.928 314 171.996 C 314 164.138 318.193 156.876 325 152.947 Z M 331.5 179.788 C 337.5 183.252 345 178.922 345 171.996 C 345 168.781 343.285 165.81 340.5 164.203 C 334.5 160.74 327 165.069 327 171.996 C 327 175.21 328.715 178.181 331.5 179.788 Z M 249 20.975 C 263.667 12.51 282 23.092 282 40.025 C 282 47.882 277.807 55.144 271 59.073 C 256.333 67.538 238 56.956 238 40.025 C 238 32.166 242.193 24.905 249 20.975 Z M 255.5 47.816 C 261.5 51.28 269 46.95 269 40.025 C 269 36.81 267.285 33.838 264.5 32.232 C 258.5 28.769 251 33.098 251 40.025 C 251 43.238 252.715 46.21 255.5 47.816 Z"></path>
<rect x="112" y="113.009" width="137" height="76.983" style="fill: rgb(218, 218, 218); stroke-width: 5px; stroke-linejoin: round; stroke: rgb(190, 238, 253); pointer-events: none;"></rect>
</svg>
